<svg role="img" aria-labelledby="whatsapp-title" viewBox="0 0 64 64" xmlns="http://www.w3.org/2000/svg">
  <title id="whatsapp-title">WhatsApp</title>
  <defs><linearGradient id="wa-green" x1="12" y1="8" x2="51" y2="56" gradientUnits="userSpaceOnUse"><stop stop-color="#5EEA73"/><stop offset="1" stop-color="#16BE55"/></linearGradient></defs>
  <path fill="url(#wa-green)" d="M32 5.5A25.7 25.7 0 0 0 9.9 44.2L6.5 57.5l13.7-3.3A25.7 25.7 0 1 0 32 5.5Z"/>
  <path fill="#fff" d="M45.8 37.8c-.7-.4-4.4-2.2-5.1-2.4-.7-.3-1.2-.4-1.7.4-.5.7-2 2.4-2.4 2.9-.5.5-.9.6-1.7.2-4.5-2.2-7.5-4-10.5-9.1-.8-1.4.8-1.3 2.3-4.3.3-.5.1-1-.1-1.4-.2-.4-1.7-4.1-2.3-5.6-.6-1.5-1.2-1.3-1.7-1.3h-1.5c-.5 0-1.4.2-2.1 1-.7.8-2.7 2.7-2.7 6.5 0 3.8 2.8 7.5 3.2 8 .4.5 5.5 8.4 13.3 11.8 1.9.8 3.3 1.3 4.4 1.7 1.9.6 3.6.5 4.9.3 1.5-.2 4.4-1.8 5.1-3.6.6-1.8.6-3.3.4-3.6-.2-.3-.7-.5-1.5-.9Z"/>
</svg>
